# xmcd
#
# Track frame offsets:
#	150
#	20195
#	38460
#	60120
#	78652
#	97015
#	121935
#	136117
#	153587
#	171347
#	191965
#
# Disc length: 2762 seconds
#
# Revision: 0
# Processed by: cddbd v1.5.1PL2 Copyright (c) Steve Scherf et al.
# Submitted via: dBpowerAMP V4.0
#
DISCID=8e0ac80b
DTITLE=Killers of Society - It Aint No Thang To me
DYEAR=1997
DGENRE=Rap
TTITLE0=Lay Your Strap Down
TTITLE1=I Got Lost Of -----
TTITLE2=It Ain't NO Thang To Me
TTITLE3=Final Breath
TTITLE4=Some Body Told
TTITLE5=All About Game
TTITLE6=Six Feet Deep
TTITLE7=Caught Up
TTITLE8=Every Time I Smoke
TTITLE9=My Click
TTITLE10=Murda-N-Me
EXTD=
EXTT0=
EXTT1=
EXTT2=
EXTT3=
EXTT4=
EXTT5=
EXTT6=
EXTT7=
EXTT8=
EXTT9=
EXTT10=
PLAYORDER=
